<svg width="20" height="20" viewBox="0 0 20 20" xmlns="http://www.w3.org/2000/svg" role="img" aria-hidden="true" focusable="false">
  <path fill="black" d="M9.99967 1.66666C14.6019 1.66666 18.3335 5.39745 18.3337 9.99967C18.3337 14.602 14.602 18.3337 9.99967 18.3337C5.39745 18.3335 1.66667 14.6019 1.66667 9.99967C1.66684 5.39756 5.39756 1.66684 9.99967 1.66666ZM5.69987 10.8825C5.35852 10.8825 5.07533 11.1662 5.07487 11.5075C5.07487 11.8491 5.35825 12.1324 5.69987 12.1325H12.7829L11.3171 13.5993C11.0755 13.8409 11.0756 14.2414 11.3171 14.4831C11.442 14.6079 11.6003 14.6667 11.7585 14.6667C11.9167 14.6666 12.0749 14.6079 12.1999 14.4831L14.7331 11.9499C14.7913 11.8916 14.8336 11.8246 14.8669 11.7497C14.9334 11.5998 14.933 11.424 14.8747 11.2741C14.8079 11.1245 14.6909 10.9998 14.5329 10.9333C14.458 10.9 14.3748 10.8825 14.2917 10.8825H5.69987ZM8.67546 5.50748C8.4339 5.26617 8.0333 5.26629 7.79167 5.50748L5.25846 8.04166C5.20035 8.09983 5.15794 8.16616 5.12467 8.24088C5.05806 8.39076 5.05817 8.56655 5.12467 8.71647C5.19133 8.86636 5.30826 8.9916 5.46647 9.05827C5.54147 9.0916 5.62533 9.10807 5.70866 9.10807H14.3005C14.6418 9.10781 14.9253 8.82448 14.9255 8.48307C14.9252 8.14161 14.6415 7.85809 14.2917 7.85807H7.20866L8.67546 6.39127C8.91668 6.14958 8.91692 5.74902 8.67546 5.50748Z"/>
</svg>
